<svg id="svg" xmlns="http://www.w3.org/2000/svg" xmlns:xlink="http://www.w3.org/1999/xlink" width="400" height="400" viewBox="0, 0, 400,400"><g id="svgg"><path id="path0" d="M53.906 2.781 C 40.421 5.688,28.345 15.192,21.961 27.922 C 17.236 37.345,17.212 37.676,17.199 92.383 L 17.188 142.188 64.453 142.188 L 111.719 142.188 111.719 119.141 L 111.719 96.094 225.977 96.080 C 352.612 96.065,345.947 96.329,357.031 90.901 C 395.739 71.949,389.228 13.857,347.191 3.106 C 339.236 1.071,63.256 0.766,53.906 2.781 M17.188 225.769 L 17.188 272.656 151.758 272.765 C 313.966 272.897,295.127 273.505,306.946 267.758 C 343.440 250.012,340.220 196.833,301.716 181.395 L 296.484 179.297 156.836 179.089 L 17.188 178.881 17.188 225.769 M17.199 333.398 C 17.215 366.151,18.867 372.193,31.160 384.446 C 56.055 409.261,97.017 399.778,108.933 366.441 L 111.319 359.766 111.576 334.570 L 111.834 309.375 64.511 309.375 L 17.188 309.375 17.199 333.398 " stroke="none" fill="#000000" fill-rule="evenodd"></path></g></svg>